<svg xmlns="http://www.w3.org/2000/svg" xmlns:xlink="http://www.w3.org/1999/xlink" width="100" zoomAndPan="magnify" viewBox="0 0 75 74.999997" height="100" preserveAspectRatio="xMidYMid meet" version="1.0"><defs><clipPath id="30eb78cb11"><path d="M 34.546875 20.136719 L 73.324219 20.136719 L 73.324219 62.136719 L 34.546875 62.136719 Z M 34.546875 20.136719 " clip-rule="nonzero"/></clipPath><clipPath id="6dd357c351"><path d="M 1.46875 6.671875 L 38.96875 6.671875 L 38.96875 53.652344 L 1.46875 53.652344 Z M 1.46875 6.671875 " clip-rule="nonzero"/></clipPath></defs><path fill="#2bb673" d="M 56.542969 41.046875 C 55.996094 41.179688 55.441406 41.28125 54.886719 41.359375 C 54.605469 41.398438 54.324219 41.429688 54.039062 41.449219 C 53.953125 41.460938 53.863281 41.464844 53.777344 41.472656 C 53.4375 41.492188 53.089844 41.507812 52.746094 41.507812 C 52.394531 41.507812 52.035156 41.492188 51.679688 41.464844 C 51.585938 41.460938 51.484375 41.457031 51.386719 41.445312 C 50.222656 41.34375 49.0625 41.121094 47.917969 40.761719 C 45.695312 40.0625 43.683594 38.902344 41.996094 37.386719 C 40.550781 35.722656 39.4375 33.761719 38.773438 31.609375 C 41.609375 30.917969 44.566406 31.015625 47.390625 31.902344 C 47.535156 31.945312 47.679688 31.992188 47.816406 32.039062 C 48.828125 32.390625 49.792969 32.835938 50.695312 33.371094 C 51.644531 33.925781 52.53125 34.578125 53.339844 35.316406 C 54.777344 36.96875 55.878906 38.917969 56.542969 41.046875 Z M 56.601562 30.191406 C 54.894531 27.773438 52.601562 25.914062 49.925781 24.753906 C 49.441406 26.074219 49.136719 27.445312 49.007812 28.824219 C 54.203125 31.230469 58.082031 35.945312 59.382812 41.582031 C 59.921875 37.621094 58.96875 33.527344 56.601562 30.191406 " fill-opacity="1" fill-rule="nonzero"/><path fill="#fbb040" d="M 68.179688 52.027344 C 68.179688 56.4375 62.59375 60.019531 55.71875 60.019531 C 51.277344 60.019531 47.371094 58.519531 45.167969 56.265625 C 44.882812 55.8125 44.664062 55.332031 44.511719 54.839844 C 44.292969 54.140625 44.160156 53.898438 44.160156 53.308594 C 44.160156 52.714844 44.402344 52.027344 44.511719 51.777344 C 45.632812 48.101562 50.691406 45.320312 56.738281 45.320312 C 61.175781 45.320312 65.078125 46.808594 67.285156 49.054688 C 67.863281 49.972656 68.179688 50.976562 68.179688 52.027344 " fill-opacity="1" fill-rule="nonzero"/><path fill="#f9d641" d="M 67.515625 51.367188 C 67.515625 55.777344 61.929688 59.359375 55.054688 59.359375 C 50.613281 59.359375 46.707031 57.859375 44.503906 55.605469 C 44.21875 55.152344 44 54.675781 43.851562 54.183594 C 43.628906 53.480469 43.496094 53.238281 43.496094 52.648438 C 43.496094 52.054688 43.742188 51.367188 43.851562 51.117188 C 44.96875 47.441406 50.027344 44.660156 56.078125 44.660156 C 60.515625 44.660156 64.414062 46.148438 66.621094 48.394531 C 67.203125 49.3125 67.515625 50.320312 67.515625 51.367188 " fill-opacity="1" fill-rule="nonzero"/><path fill="#d3d2d2" d="M 55.71875 60.019531 C 51.277344 60.019531 47.371094 58.519531 45.167969 56.265625 C 45.148438 56.234375 45.125 56.199219 45.105469 56.167969 C 45.105469 56.167969 45.105469 56.164062 45.105469 56.164062 C 45.125 56.199219 45.144531 56.234375 45.164062 56.265625 C 47.371094 58.519531 51.269531 60.019531 55.71875 60.019531 M 67.277344 49.046875 C 67.214844 48.984375 67.15625 48.925781 67.09375 48.867188 C 67.15625 48.925781 67.214844 48.984375 67.277344 49.046875 " fill-opacity="1" fill-rule="nonzero"/><path fill="#d09135" d="M 55.71875 60.019531 C 61.878906 60.019531 67.003906 57.140625 68.003906 53.375 C 68.117188 52.933594 68.179688 52.484375 68.179688 52.027344 C 68.179688 50.976562 67.859375 49.972656 67.285156 49.054688 C 67.28125 49.050781 67.277344 49.046875 67.277344 49.046875 C 67.214844 48.984375 67.15625 48.925781 67.09375 48.867188 C 66.96875 48.746094 66.832031 48.628906 66.695312 48.511719 C 67.230469 49.398438 67.515625 50.363281 67.515625 51.367188 C 67.515625 53.457031 66.261719 55.359375 64.210938 56.785156 C 61.933594 58.367188 58.671875 59.359375 55.054688 59.359375 C 51.992188 59.359375 49.1875 58.648438 47.015625 57.464844 C 46.308594 57.078125 45.664062 56.644531 45.105469 56.167969 C 45.125 56.199219 45.148438 56.234375 45.167969 56.265625 C 47.371094 58.519531 51.277344 60.019531 55.71875 60.019531 " fill-opacity="1" fill-rule="nonzero"/><path fill="#ceb036" d="M 47.015625 57.464844 C 46.304688 57.078125 45.660156 56.636719 45.097656 56.15625 C 45.101562 56.160156 45.101562 56.164062 45.105469 56.164062 C 45.105469 56.164062 45.105469 56.167969 45.105469 56.167969 C 45.664062 56.644531 46.308594 57.078125 47.015625 57.464844 M 64.210938 56.785156 C 66.261719 55.359375 67.515625 53.457031 67.515625 51.367188 C 67.515625 50.363281 67.230469 49.398438 66.695312 48.511719 C 66.691406 48.511719 66.6875 48.507812 66.683594 48.503906 C 67.222656 49.386719 67.515625 50.363281 67.515625 51.363281 C 67.515625 53.457031 66.261719 55.359375 64.210938 56.785156 " fill-opacity="1" fill-rule="nonzero"/><g clip-path="url(#30eb78cb11)"><path fill="#231f20" d="M 68.179688 52.027344 C 68.179688 53.660156 67.414062 55.179688 66.097656 56.441406 C 64.261719 56.53125 63.070312 55.613281 63.007812 55.566406 C 62.777344 55.386719 62.445312 55.417969 62.261719 55.648438 C 62.078125 55.875 62.113281 56.207031 62.34375 56.394531 C 62.402344 56.441406 63.363281 57.183594 64.890625 57.425781 C 63.714844 58.25 62.285156 58.910156 60.671875 59.355469 C 59.207031 57.703125 57.46875 55.085938 57.324219 51.917969 C 57.238281 50.070312 57.71875 48.222656 58.757812 46.394531 C 59.109375 45.769531 59.523438 45.144531 60 44.523438 C 60.285156 44.589844 60.554688 44.660156 60.824219 44.742188 C 63.757812 45.585938 66.082031 47.136719 67.285156 49.054688 C 67.863281 49.972656 68.179688 50.976562 68.179688 52.027344 Z M 55.71875 60.019531 C 55.042969 60.019531 54.371094 59.980469 53.730469 59.914062 C 52.203125 58.324219 50.035156 55.460938 49.875 51.917969 C 49.761719 49.355469 50.722656 46.792969 52.738281 44.269531 C 53.222656 44.191406 53.71875 44.132812 54.222656 44.09375 C 54.710938 44.058594 55.214844 44.035156 55.71875 44.035156 C 55.957031 44.035156 56.199219 44.042969 56.4375 44.050781 C 56.21875 44.398438 56.015625 44.742188 55.832031 45.085938 C 54.597656 47.355469 54.03125 49.683594 54.136719 52.058594 C 54.28125 55.265625 55.640625 57.96875 57.085938 59.96875 C 56.640625 60.003906 56.179688 60.019531 55.71875 60.019531 Z M 45.167969 56.265625 C 44.363281 55.449219 43.789062 54.539062 43.492188 53.558594 C 43.285156 52.484375 43.304688 51.199219 43.492188 50.496094 C 44.078125 48.578125 45.726562 46.902344 48.035156 45.742188 C 47.039062 47.804688 46.589844 49.914062 46.683594 52.058594 C 46.800781 54.609375 47.679688 56.832031 48.765625 58.644531 C 47.324219 58.027344 46.09375 57.214844 45.167969 56.265625 Z M 41.996094 37.386719 C 39.867188 35.46875 38.257812 33 37.394531 30.210938 C 40.230469 29.519531 43.1875 29.617188 46.015625 30.503906 C 46.253906 30.578125 46.488281 30.664062 46.722656 30.746094 C 46.785156 30.769531 46.84375 30.792969 46.90625 30.816406 C 47.105469 30.890625 47.300781 30.96875 47.5 31.054688 C 47.558594 31.082031 47.609375 31.101562 47.667969 31.128906 C 47.867188 31.214844 48.058594 31.304688 48.25 31.398438 C 48.308594 31.425781 48.367188 31.457031 48.425781 31.488281 C 48.589844 31.566406 48.75 31.660156 48.90625 31.742188 C 49.007812 31.800781 49.117188 31.855469 49.21875 31.914062 C 50.777344 32.8125 52.167969 33.964844 53.339844 35.316406 C 54.777344 36.96875 55.878906 38.917969 56.542969 41.046875 C 55.996094 41.179688 55.441406 41.28125 54.886719 41.359375 C 54.605469 41.398438 54.324219 41.429688 54.039062 41.449219 C 53.953125 41.460938 53.863281 41.464844 53.777344 41.472656 C 53.4375 41.492188 53.089844 41.507812 52.746094 41.507812 C 52.394531 41.507812 52.035156 41.492188 51.679688 41.464844 C 51.585938 41.460938 51.484375 41.457031 51.386719 41.445312 C 50.222656 41.34375 49.0625 41.121094 47.917969 40.761719 C 45.695312 40.0625 43.683594 38.902344 41.996094 37.386719 Z M 49.988281 23.324219 C 52.664062 24.484375 54.957031 26.34375 56.664062 28.761719 C 59.207031 32.347656 60.113281 36.808594 59.300781 41.039062 C 57.875 35.652344 54.089844 31.175781 49.074219 28.851562 C 49.050781 28.839844 49.03125 28.835938 49.007812 28.824219 C 49.015625 26.96875 49.332031 25.105469 49.988281 23.324219 Z M 72.941406 45.367188 C 72.902344 45.308594 72.855469 45.253906 72.796875 45.207031 C 71.851562 44.429688 69.589844 43.570312 67.078125 45.050781 C 67.898438 43.421875 69.023438 42.722656 69.957031 42.441406 C 70.058594 43.21875 70.714844 43.824219 71.527344 43.824219 C 72.402344 43.824219 73.117188 43.113281 73.117188 42.242188 C 73.117188 41.359375 72.402344 40.65625 71.527344 40.65625 C 71.457031 40.65625 71.386719 40.667969 71.316406 40.675781 C 70.078125 40.660156 67.171875 41.042969 65.535156 44.566406 C 64.382812 43.839844 63.070312 43.234375 61.628906 42.789062 C 63.03125 37.5 62.050781 31.765625 58.839844 27.230469 C 56.5625 24.015625 53.402344 21.644531 49.691406 20.367188 C 49.042969 20.136719 48.332031 20.445312 48.046875 21.066406 C 47.046875 23.234375 46.5 25.539062 46.375 27.859375 C 42.742188 26.808594 38.941406 26.863281 35.355469 28.039062 C 34.707031 28.25 34.324219 28.925781 34.480469 29.59375 C 35.9375 36.050781 40.785156 41.300781 47.121094 43.289062 C 47.378906 43.371094 47.636719 43.4375 47.894531 43.507812 C 44.730469 44.894531 42.398438 47.117188 41.519531 49.722656 C 41.464844 49.722656 41.417969 49.710938 41.363281 49.710938 C 39.785156 49.710938 38.507812 50.75 38.507812 52.027344 C 38.507812 53.304688 39.785156 54.34375 41.363281 54.34375 C 41.417969 54.34375 41.464844 54.332031 41.519531 54.328125 C 42.664062 57.714844 46.257812 60.449219 50.933594 61.582031 C 52.4375 61.941406 54.042969 62.136719 55.71875 62.136719 L 55.820312 62.136719 C 56.808594 62.132812 57.773438 62.058594 58.703125 61.925781 C 59.992188 61.742188 61.21875 61.433594 62.359375 61.023438 C 67.070312 59.351562 70.308594 55.941406 70.308594 52.027344 C 70.308594 49.960938 69.40625 48.039062 67.863281 46.4375 C 69 45.753906 69.972656 45.742188 70.667969 45.914062 C 70.5625 46.449219 70.796875 47.007812 71.296875 47.289062 C 71.917969 47.640625 72.707031 47.421875 73.058594 46.804688 C 73.324219 46.332031 73.261719 45.765625 72.941406 45.367188 Z M 63.53125 49.867188 C 63.539062 49.917969 63.546875 49.964844 63.546875 50.019531 C 63.546875 50.472656 63.175781 50.839844 62.71875 50.839844 C 62.261719 50.839844 61.894531 50.472656 61.894531 50.019531 C 61.894531 49.605469 62.199219 49.261719 62.597656 49.203125 C 62.464844 49.167969 62.320312 49.148438 62.175781 49.148438 C 61.273438 49.148438 60.542969 49.878906 60.542969 50.777344 C 60.542969 51.675781 61.273438 52.40625 62.175781 52.40625 C 63.078125 52.40625 63.8125 51.675781 63.8125 50.777344 C 63.8125 50.441406 63.707031 50.125 63.53125 49.867188 " fill-opacity="1" fill-rule="nonzero"/></g><path fill="#177f4b" d="M 56.542969 41.046875 C 55.988281 41.179688 55.4375 41.28125 54.886719 41.359375 C 54.601562 41.398438 54.324219 41.429688 54.03125 41.449219 C 53.953125 41.460938 53.863281 41.464844 53.769531 41.472656 C 53.429688 41.492188 53.089844 41.507812 52.738281 41.507812 C 52.394531 41.507812 52.03125 41.492188 51.675781 41.464844 C 51.578125 41.460938 51.476562 41.457031 51.386719 41.445312 C 50.21875 41.34375 49.0625 41.121094 47.914062 40.761719 C 45.691406 40.0625 43.683594 38.902344 41.992188 37.386719 C 41.242188 36.515625 40.578125 35.570312 40.019531 34.558594 C 40.433594 35.1875 40.890625 35.785156 41.378906 36.359375 C 43.140625 37.9375 45.238281 39.152344 47.550781 39.878906 C 48.742188 40.253906 49.953125 40.488281 51.167969 40.585938 C 51.265625 40.601562 51.371094 40.609375 51.472656 40.613281 C 51.84375 40.640625 52.21875 40.65625 52.578125 40.65625 C 52.941406 40.65625 53.304688 40.640625 53.660156 40.617188 C 53.746094 40.613281 53.839844 40.609375 53.929688 40.597656 C 54.230469 40.570312 54.519531 40.539062 54.8125 40.503906 C 55.296875 40.433594 55.78125 40.34375 56.261719 40.238281 C 56.367188 40.503906 56.457031 40.773438 56.542969 41.046875 Z M 59.464844 38.042969 C 57.191406 33.832031 53.472656 30.523438 49.015625 28.769531 C 49.015625 28.785156 49.007812 28.808594 49.007812 28.824219 C 54.203125 31.230469 58.082031 35.945312 59.382812 41.582031 C 59.542969 40.40625 59.570312 39.21875 59.464844 38.042969 " fill-opacity="1" fill-rule="nonzero"/><g clip-path="url(#6dd357c351)"><path fill="#1a1a1a" d="M 1.675781 9.917969 C 1.46875 9.621094 1.539062 9.214844 1.835938 9.007812 C 4.496094 7.144531 7.851562 6.421875 11.046875 7.03125 C 14.238281 7.640625 17.09375 9.546875 18.878906 12.261719 C 20.914062 15.347656 21.625 19.507812 20.988281 24.625 C 20.761719 26.464844 20.394531 28.300781 20.039062 30.078125 C 19.601562 32.269531 19.152344 34.535156 18.96875 36.78125 C 18.699219 40.0625 18.972656 44.664062 21.796875 47.957031 C 23.554688 50.007812 26.234375 51.410156 29.339844 51.902344 C 31.929688 52.308594 34.8125 52.117188 38.164062 51.316406 C 38.515625 51.230469 38.867188 51.449219 38.949219 51.800781 C 38.960938 51.851562 38.96875 51.902344 38.96875 51.953125 C 38.96875 52.246094 38.765625 52.515625 38.46875 52.585938 C 34.949219 53.429688 31.898438 53.628906 29.136719 53.191406 C 25.722656 52.652344 22.765625 51.09375 20.804688 48.808594 C 17.6875 45.171875 17.378906 40.203125 17.664062 36.671875 C 17.855469 34.355469 18.3125 32.050781 18.757812 29.820312 C 19.109375 28.070312 19.46875 26.257812 19.691406 24.464844 C 20.289062 19.664062 19.648438 15.800781 17.789062 12.980469 C 16.21875 10.59375 13.605469 8.851562 10.800781 8.316406 C 7.996094 7.78125 4.921875 8.4375 2.585938 10.078125 C 2.289062 10.285156 1.882812 10.214844 1.675781 9.917969 Z M 1.675781 9.917969 " fill-opacity="1" fill-rule="nonzero"/></g></svg>