<svg xmlns="http://www.w3.org/2000/svg" xmlns:xlink="http://www.w3.org/1999/xlink" width="100" zoomAndPan="magnify" viewBox="0 0 75 30.000001" height="40" preserveAspectRatio="xMidYMid meet" version="1.0"><defs><clipPath id="4c2468add1"><path d="M 1.210938 16.335938 L 54.917969 16.335938 L 54.917969 28.675781 L 1.210938 28.675781 Z M 1.210938 16.335938 " clip-rule="nonzero"/></clipPath><clipPath id="d7d527786d"><path d="M 52.617188 0 L 73.382812 0 L 73.382812 22.5 L 52.617188 22.5 Z M 52.617188 0 " clip-rule="nonzero"/></clipPath></defs><g clip-path="url(#4c2468add1)"><path stroke-linecap="butt" transform="matrix(0.00386664, 0, 0, 0.00376111, 1.211246, 16.426611)" fill-opacity="1" fill="#000000" fill-rule="nonzero" stroke-linejoin="miter" d="M 12168.294484 652.013149 C 12574.412083 345.629499 13200.76261 -2.297697 13880.656004 83.90516 L 13888.737946 14.319721 C 13592.73681 -23.06947 13279.561547 16.396898 12958.304341 132.718827 C 12679.477333 233.461925 12399.640082 389.250222 12125.864287 594.890774 C 11821.781209 824.418864 11545.984929 1094.451912 11279.280834 1355.137662 C 11105.519075 1525.466199 10925.695859 1700.98768 10740.82143 1864.046098 C 10167.003528 2365.684413 9634.605581 2633.640284 9111.299818 2683.492539 C 8624.362796 2729.190439 8127.323346 2579.633674 7747.472059 2273.250024 C 7624.22244 2174.584103 7511.075248 2057.223586 7400.958784 1942.978835 C 7205.981927 1742.531226 7004.943613 1535.852086 6745.311217 1418.491569 C 6486.689064 1302.169641 6190.687929 1283.475045 5867.410238 1362.407782 C 5594.644686 1428.877456 5309.756221 1564.932568 5045.072611 1756.032879 C 4843.024054 1900.3967 4653.098411 2067.609472 4470.244467 2229.629301 C 4214.653042 2453.964448 3950.979676 2685.569716 3653.968297 2859.01402 C 3166.021032 3142.54872 2474.004725 3255.754882 2028.487657 2870.438495 C 1973.934546 2823.702006 1927.463378 2772.811162 1886.043424 2718.804552 C 2188.106017 2578.595085 2474.004725 2410.343725 2739.698577 2216.127648 C 2963.972475 2052.030642 3238.758513 1822.502552 3372.11056 1502.617249 C 3435.755856 1349.944719 3457.981197 1177.539003 3434.745613 1016.557764 C 3409.489543 841.036283 3333.721334 693.556695 3214.512686 589.69783 C 3102.375737 491.031909 2955.890533 435.986711 2790.210716 429.755179 C 2637.664056 423.523647 2478.045696 460.912838 2342.673163 534.652632 C 2106.276351 664.476213 1912.309737 894.004303 1766.834776 1219.082549 C 1636.513456 1507.810193 1578.929618 1829.772672 1604.185687 2126.809025 C 1622.370058 2339.719697 1682.984625 2529.781419 1780.978175 2687.646893 C 1219.283187 2935.869579 611.11703 3082.310578 0.930389 3111.39106 L 3.961117 3182.015088 C 491.908382 3159.166138 975.814675 3063.615983 1442.546842 2898.480388 C 1570.847675 2853.821076 1697.128024 2802.930233 1821.387886 2747.885035 C 1867.859054 2813.316119 1921.401922 2871.477083 1982.016489 2923.406516 C 2182.04456 3096.850819 2445.717927 3187.208031 2746.770277 3187.208031 C 2770.005861 3187.208031 2793.241445 3187.208031 2816.477029 3186.169443 C 3106.416708 3172.66779 3416.561243 3078.156224 3690.337037 2919.252161 C 3992.39963 2743.73068 4259.103725 2509.009646 4516.715635 2281.558733 C 4698.559336 2121.616082 4886.464494 1955.441898 5085.482322 1813.155254 C 5655.259253 1402.912739 6265.445895 1280.359279 6717.024419 1482.884065 C 6964.533901 1594.01305 7151.428817 1788.229127 7350.446645 1992.83109 C 7461.573351 2107.075841 7576.741029 2226.513535 7703.021377 2328.295222 C 8050.544895 2608.714156 8492.020992 2762.425276 8937.538059 2762.425276 C 8997.142384 2762.425276 9057.756951 2759.30951 9117.361275 2754.116566 C 9655.820679 2703.225723 10202.362026 2429.038321 10787.292598 1917.014119 C 10973.17727 1752.917113 11154.010728 1576.357043 11328.78273 1406.028505 C 11593.46634 1146.381344 11868.252377 878.425474 12168.294484 652.013149 Z M 1830.480071 1248.163031 C 1970.903818 937.625026 2153.757762 718.482822 2376.011175 596.967951 C 2497.240309 531.536866 2628.571871 498.30203 2755.862462 498.30203 C 2911.43985 498.30203 3058.935297 547.115696 3168.041518 642.665851 C 3402.417844 847.267814 3415.551 1215.966783 3307.455022 1475.613945 C 3180.164431 1778.881829 2915.480822 2000.10121 2698.278623 2159.005273 C 2432.584771 2353.221349 2145.67582 2520.434121 1845.633713 2658.566411 C 1584.991074 2249.362485 1639.544185 1670.86861 1830.480071 1248.163031 Z M 1830.480071 1248.163031 " stroke="#1a1a1a" stroke-width="1" stroke-opacity="1" stroke-miterlimit="10"/></g><path fill="#2bb673" d="M 64.324219 11.203125 C 64.03125 11.273438 63.730469 11.328125 63.433594 11.371094 C 63.28125 11.390625 63.128906 11.40625 62.972656 11.417969 C 62.925781 11.421875 62.878906 11.425781 62.832031 11.429688 C 62.648438 11.441406 62.460938 11.449219 62.277344 11.449219 C 62.085938 11.449219 61.894531 11.441406 61.703125 11.425781 C 61.648438 11.421875 61.59375 11.421875 61.542969 11.414062 C 60.914062 11.359375 60.289062 11.242188 59.671875 11.046875 C 58.472656 10.675781 57.386719 10.050781 56.476562 9.242188 C 55.695312 8.347656 55.09375 7.300781 54.734375 6.148438 C 56.265625 5.773438 57.863281 5.828125 59.386719 6.300781 C 59.464844 6.324219 59.542969 6.351562 59.617188 6.375 C 60.160156 6.5625 60.683594 6.800781 61.171875 7.089844 C 61.679688 7.386719 62.160156 7.734375 62.597656 8.128906 C 63.371094 9.015625 63.964844 10.0625 64.324219 11.203125 Z M 64.355469 5.386719 C 63.4375 4.089844 62.199219 3.09375 60.753906 2.472656 C 60.492188 3.179688 60.328125 3.914062 60.261719 4.652344 C 63.0625 5.941406 65.15625 8.46875 65.859375 11.488281 C 66.148438 9.367188 65.636719 7.175781 64.355469 5.386719 " fill-opacity="1" fill-rule="nonzero"/><path fill="#fbb040" d="M 70.605469 17.082031 C 70.605469 19.445312 67.589844 21.363281 63.878906 21.363281 C 61.484375 21.363281 59.375 20.558594 58.1875 19.355469 C 58.03125 19.109375 57.914062 18.855469 57.832031 18.589844 C 57.714844 18.214844 57.640625 18.085938 57.640625 17.769531 C 57.640625 17.453125 57.773438 17.082031 57.832031 16.949219 C 58.4375 14.980469 61.167969 13.488281 64.433594 13.488281 C 66.828125 13.488281 68.929688 14.289062 70.125 15.492188 C 70.4375 15.980469 70.605469 16.519531 70.605469 17.082031 " fill-opacity="1" fill-rule="nonzero"/><path fill="#f9d641" d="M 70.25 16.730469 C 70.25 19.089844 67.234375 21.011719 63.523438 21.011719 C 61.125 21.011719 59.019531 20.207031 57.828125 19 C 57.675781 18.757812 57.554688 18.5 57.476562 18.238281 C 57.355469 17.859375 57.285156 17.730469 57.285156 17.417969 C 57.285156 17.097656 57.417969 16.730469 57.476562 16.597656 C 58.078125 14.625 60.808594 13.136719 64.074219 13.136719 C 66.46875 13.136719 68.574219 13.933594 69.765625 15.136719 C 70.078125 15.628906 70.25 16.167969 70.25 16.730469 " fill-opacity="1" fill-rule="nonzero"/><path fill="#d3d2d2" d="M 63.878906 21.363281 C 61.484375 21.363281 59.375 20.558594 58.1875 19.355469 C 58.175781 19.335938 58.164062 19.320312 58.152344 19.300781 C 58.164062 19.316406 58.171875 19.335938 58.183594 19.355469 C 59.375 20.558594 61.480469 21.363281 63.878906 21.363281 M 70.117188 15.484375 C 70.085938 15.453125 70.054688 15.421875 70.019531 15.390625 C 70.054688 15.421875 70.085938 15.453125 70.117188 15.484375 " fill-opacity="1" fill-rule="nonzero"/><path fill="#d09135" d="M 63.878906 21.363281 C 67.203125 21.363281 69.972656 19.824219 70.511719 17.804688 C 70.574219 17.570312 70.605469 17.328125 70.605469 17.082031 C 70.605469 16.519531 70.433594 15.980469 70.125 15.492188 C 70.121094 15.488281 70.121094 15.488281 70.117188 15.484375 C 70.085938 15.453125 70.054688 15.421875 70.019531 15.390625 C 69.953125 15.324219 69.878906 15.261719 69.804688 15.199219 C 70.09375 15.675781 70.25 16.191406 70.25 16.730469 C 70.25 17.847656 69.570312 18.867188 68.464844 19.632812 C 67.234375 20.480469 65.476562 21.011719 63.523438 21.011719 C 61.871094 21.011719 60.355469 20.628906 59.183594 19.996094 C 58.800781 19.789062 58.457031 19.554688 58.152344 19.300781 C 58.164062 19.320312 58.175781 19.335938 58.1875 19.355469 C 59.375 20.558594 61.484375 21.363281 63.878906 21.363281 " fill-opacity="1" fill-rule="nonzero"/><path fill="#ceb036" d="M 59.183594 19.996094 C 58.800781 19.789062 58.453125 19.550781 58.148438 19.292969 C 58.148438 19.296875 58.152344 19.296875 58.152344 19.300781 C 58.457031 19.554688 58.800781 19.789062 59.183594 19.996094 M 68.464844 19.632812 C 69.570312 18.867188 70.25 17.847656 70.25 16.730469 C 70.25 16.191406 70.09375 15.675781 69.804688 15.199219 C 69.804688 15.199219 69.800781 15.199219 69.796875 15.195312 C 70.089844 15.667969 70.246094 16.191406 70.246094 16.726562 C 70.246094 17.847656 69.570312 18.867188 68.464844 19.632812 " fill-opacity="1" fill-rule="nonzero"/><g clip-path="url(#d7d527786d)"><path fill="#231f20" d="M 70.605469 17.082031 C 70.605469 17.957031 70.191406 18.773438 69.484375 19.449219 C 68.492188 19.496094 67.847656 19.003906 67.816406 18.980469 C 67.691406 18.882812 67.511719 18.898438 67.414062 19.023438 C 67.3125 19.144531 67.332031 19.324219 67.457031 19.421875 C 67.488281 19.449219 68.007812 19.84375 68.832031 19.976562 C 68.195312 20.414062 67.425781 20.769531 66.554688 21.007812 C 65.765625 20.125 64.824219 18.722656 64.746094 17.023438 C 64.703125 16.035156 64.960938 15.046875 65.519531 14.066406 C 65.710938 13.730469 65.933594 13.394531 66.191406 13.0625 C 66.34375 13.097656 66.492188 13.136719 66.636719 13.179688 C 68.21875 13.632812 69.472656 14.464844 70.125 15.492188 C 70.4375 15.980469 70.605469 16.519531 70.605469 17.082031 Z M 63.878906 21.363281 C 63.515625 21.363281 63.152344 21.34375 62.808594 21.308594 C 61.984375 20.457031 60.8125 18.921875 60.726562 17.023438 C 60.664062 15.652344 61.183594 14.277344 62.273438 12.929688 C 62.535156 12.886719 62.800781 12.855469 63.074219 12.835938 C 63.339844 12.8125 63.609375 12.804688 63.878906 12.804688 C 64.011719 12.804688 64.140625 12.804688 64.269531 12.8125 C 64.152344 12.996094 64.042969 13.179688 63.941406 13.363281 C 63.273438 14.578125 62.96875 15.828125 63.027344 17.101562 C 63.105469 18.816406 63.835938 20.265625 64.617188 21.339844 C 64.378906 21.355469 64.128906 21.363281 63.878906 21.363281 Z M 58.1875 19.355469 C 57.753906 18.917969 57.441406 18.429688 57.28125 17.902344 C 57.171875 17.328125 57.183594 16.640625 57.28125 16.261719 C 57.597656 15.234375 58.488281 14.339844 59.734375 13.71875 C 59.199219 14.820312 58.953125 15.949219 59.003906 17.101562 C 59.066406 18.464844 59.542969 19.65625 60.128906 20.628906 C 59.347656 20.296875 58.6875 19.863281 58.1875 19.355469 Z M 56.476562 9.242188 C 55.328125 8.214844 54.457031 6.890625 53.992188 5.398438 C 55.523438 5.027344 57.117188 5.078125 58.644531 5.554688 C 58.773438 5.59375 58.898438 5.636719 59.023438 5.683594 C 59.058594 5.695312 59.089844 5.710938 59.125 5.722656 C 59.230469 5.761719 59.339844 5.804688 59.445312 5.847656 C 59.476562 5.863281 59.503906 5.875 59.535156 5.886719 C 59.640625 5.933594 59.746094 5.980469 59.847656 6.03125 C 59.878906 6.046875 59.914062 6.0625 59.945312 6.082031 C 60.03125 6.125 60.117188 6.171875 60.207031 6.21875 C 60.261719 6.25 60.316406 6.277344 60.371094 6.308594 C 61.214844 6.789062 61.964844 7.40625 62.597656 8.128906 C 63.371094 9.015625 63.964844 10.0625 64.324219 11.203125 C 64.03125 11.273438 63.730469 11.328125 63.433594 11.371094 C 63.28125 11.390625 63.128906 11.40625 62.972656 11.417969 C 62.925781 11.421875 62.878906 11.425781 62.832031 11.429688 C 62.648438 11.441406 62.460938 11.449219 62.277344 11.449219 C 62.085938 11.449219 61.894531 11.441406 61.703125 11.425781 C 61.648438 11.421875 61.59375 11.421875 61.542969 11.414062 C 60.914062 11.359375 60.289062 11.242188 59.671875 11.046875 C 58.472656 10.675781 57.386719 10.050781 56.476562 9.242188 Z M 60.789062 1.707031 C 62.234375 2.328125 63.46875 3.324219 64.390625 4.621094 C 65.765625 6.542969 66.253906 8.929688 65.8125 11.195312 C 65.042969 8.3125 63.003906 5.914062 60.292969 4.667969 C 60.28125 4.664062 60.269531 4.660156 60.261719 4.652344 C 60.261719 3.660156 60.433594 2.660156 60.789062 1.707031 Z M 73.175781 13.515625 C 73.15625 13.484375 73.128906 13.457031 73.097656 13.429688 C 72.585938 13.011719 71.367188 12.554688 70.011719 13.34375 C 70.453125 12.472656 71.0625 12.097656 71.566406 11.949219 C 71.621094 12.367188 71.976562 12.6875 72.410156 12.6875 C 72.886719 12.6875 73.269531 12.308594 73.269531 11.839844 C 73.269531 11.371094 72.886719 10.992188 72.410156 10.992188 C 72.375 10.992188 72.335938 10.996094 72.300781 11.003906 C 71.628906 10.996094 70.0625 11.199219 69.179688 13.085938 C 68.558594 12.699219 67.847656 12.371094 67.070312 12.132812 C 67.828125 9.300781 67.300781 6.230469 65.566406 3.800781 C 64.335938 2.078125 62.632812 0.808594 60.628906 0.125 C 60.277344 0 59.894531 0.164062 59.738281 0.5 C 59.199219 1.660156 58.90625 2.894531 58.839844 4.136719 C 56.878906 3.574219 54.828125 3.601562 52.890625 4.234375 C 52.542969 4.347656 52.335938 4.707031 52.417969 5.066406 C 53.203125 8.523438 55.820312 11.339844 59.242188 12.402344 C 59.378906 12.445312 59.519531 12.484375 59.660156 12.519531 C 57.949219 13.261719 56.691406 14.453125 56.214844 15.847656 C 56.1875 15.847656 56.164062 15.84375 56.132812 15.84375 C 55.28125 15.84375 54.589844 16.398438 54.589844 17.082031 C 54.589844 17.765625 55.28125 18.324219 56.132812 18.324219 C 56.164062 18.324219 56.1875 18.316406 56.214844 18.316406 C 56.835938 20.128906 58.773438 21.59375 61.300781 22.199219 C 62.109375 22.394531 62.976562 22.5 63.878906 22.5 L 63.933594 22.5 C 64.46875 22.496094 64.988281 22.457031 65.492188 22.386719 C 66.1875 22.285156 66.851562 22.121094 67.464844 21.902344 C 70.007812 21.007812 71.753906 19.179688 71.753906 17.082031 C 71.753906 15.976562 71.269531 14.945312 70.4375 14.089844 C 71.046875 13.722656 71.574219 13.71875 71.949219 13.808594 C 71.890625 14.09375 72.019531 14.394531 72.289062 14.546875 C 72.625 14.734375 73.050781 14.617188 73.238281 14.285156 C 73.382812 14.03125 73.347656 13.726562 73.175781 13.515625 Z M 68.097656 15.925781 C 68.101562 15.953125 68.105469 15.980469 68.105469 16.007812 C 68.105469 16.25 67.90625 16.449219 67.660156 16.449219 C 67.414062 16.449219 67.214844 16.25 67.214844 16.007812 C 67.214844 15.785156 67.378906 15.601562 67.59375 15.570312 C 67.519531 15.550781 67.445312 15.542969 67.367188 15.542969 C 66.878906 15.542969 66.484375 15.933594 66.484375 16.414062 C 66.484375 16.894531 66.878906 17.285156 67.367188 17.285156 C 67.855469 17.285156 68.25 16.894531 68.25 16.414062 C 68.25 16.234375 68.191406 16.066406 68.097656 15.925781 " fill-opacity="1" fill-rule="nonzero"/></g><path fill="#177f4b" d="M 64.324219 11.203125 C 64.027344 11.273438 63.726562 11.328125 63.433594 11.371094 C 63.277344 11.390625 63.128906 11.40625 62.96875 11.417969 C 62.925781 11.421875 62.878906 11.425781 62.828125 11.429688 C 62.644531 11.441406 62.460938 11.449219 62.273438 11.449219 C 62.085938 11.449219 61.890625 11.441406 61.699219 11.425781 C 61.648438 11.421875 61.59375 11.421875 61.542969 11.414062 C 60.910156 11.359375 60.289062 11.242188 59.667969 11.046875 C 58.46875 10.675781 57.386719 10.050781 56.472656 9.242188 C 56.066406 8.773438 55.707031 8.265625 55.40625 7.726562 C 55.632812 8.0625 55.878906 8.382812 56.140625 8.691406 C 57.09375 9.535156 58.222656 10.1875 59.472656 10.574219 C 60.117188 10.777344 60.769531 10.902344 61.425781 10.953125 C 61.476562 10.964844 61.535156 10.964844 61.589844 10.96875 C 61.789062 10.984375 61.992188 10.992188 62.1875 10.992188 C 62.382812 10.992188 62.578125 10.984375 62.769531 10.972656 C 62.816406 10.96875 62.867188 10.964844 62.914062 10.960938 C 63.078125 10.945312 63.234375 10.929688 63.390625 10.910156 C 63.652344 10.871094 63.914062 10.824219 64.171875 10.765625 C 64.230469 10.910156 64.28125 11.054688 64.324219 11.203125 Z M 65.902344 9.59375 C 64.675781 7.335938 62.667969 5.566406 60.261719 4.625 C 60.261719 4.632812 60.261719 4.644531 60.261719 4.652344 C 63.0625 5.941406 65.15625 8.46875 65.859375 11.488281 C 65.945312 10.859375 65.960938 10.222656 65.902344 9.59375 " fill-opacity="1" fill-rule="nonzero"/></svg>