<svg xmlns="http://www.w3.org/2000/svg" xmlns:xlink="http://www.w3.org/1999/xlink" width="43" zoomAndPan="magnify" viewBox="0 0 32.25 30.000001" height="40" preserveAspectRatio="xMidYMid meet" version="1.0"><defs><g/><clipPath id="06c0913e5b"><path d="M 0.15625 3 L 28 3 L 28 25 L 0.15625 25 Z M 0.15625 3 " clip-rule="nonzero"/></clipPath></defs><g fill="#86ad0f" fill-opacity="0.4"><g transform="translate(0.0677597, 51.480775)"><g><path d="M 8.546875 -25.53125 C 6.890625 -25.53125 5.554688 -26.101562 4.546875 -27.25 C 3.546875 -28.394531 3.046875 -30.015625 3.046875 -32.109375 C 3.046875 -35.566406 3.960938 -38.523438 5.796875 -40.984375 C 7.628906 -43.453125 10.117188 -45.578125 13.265625 -47.359375 L 15.78125 -43.375 C 13.875 -42.320312 12.273438 -41.117188 10.984375 -39.765625 C 9.703125 -38.410156 8.96875 -37.023438 8.78125 -35.609375 C 10.375 -35.546875 11.617188 -35.0625 12.515625 -34.15625 C 13.421875 -33.25 13.875 -32.066406 13.875 -30.609375 C 13.875 -29.660156 13.65625 -28.796875 13.21875 -28.015625 C 12.789062 -27.242188 12.164062 -26.632812 11.34375 -26.1875 C 10.53125 -25.75 9.597656 -25.53125 8.546875 -25.53125 Z M 22.828125 -25.53125 C 21.171875 -25.53125 19.835938 -26.101562 18.828125 -27.25 C 17.828125 -28.394531 17.328125 -30.015625 17.328125 -32.109375 C 17.328125 -35.566406 18.242188 -38.523438 20.078125 -40.984375 C 21.910156 -43.453125 24.398438 -45.578125 27.546875 -47.359375 L 30.0625 -43.375 C 28.15625 -42.320312 26.554688 -41.117188 25.265625 -39.765625 C 23.984375 -38.410156 23.25 -37.023438 23.0625 -35.609375 C 24.65625 -35.546875 25.898438 -35.0625 26.796875 -34.15625 C 27.703125 -33.25 28.15625 -32.066406 28.15625 -30.609375 C 28.15625 -29.660156 27.9375 -28.796875 27.5 -28.015625 C 27.070312 -27.242188 26.445312 -26.632812 25.625 -26.1875 C 24.8125 -25.75 23.878906 -25.53125 22.828125 -25.53125 Z M 22.828125 -25.53125 "/></g></g></g><g clip-path="url(#06c0913e5b)"><g fill="#86ad0f" fill-opacity="1"><g transform="translate(-2.05694, 50.398187)"><g><path d="M 8.546875 -25.53125 C 6.890625 -25.53125 5.554688 -26.101562 4.546875 -27.25 C 3.546875 -28.394531 3.046875 -30.015625 3.046875 -32.109375 C 3.046875 -35.566406 3.960938 -38.523438 5.796875 -40.984375 C 7.628906 -43.453125 10.117188 -45.578125 13.265625 -47.359375 L 15.78125 -43.375 C 13.875 -42.320312 12.273438 -41.117188 10.984375 -39.765625 C 9.703125 -38.410156 8.96875 -37.023438 8.78125 -35.609375 C 10.375 -35.546875 11.617188 -35.0625 12.515625 -34.15625 C 13.421875 -33.25 13.875 -32.066406 13.875 -30.609375 C 13.875 -29.660156 13.65625 -28.796875 13.21875 -28.015625 C 12.789062 -27.242188 12.164062 -26.632812 11.34375 -26.1875 C 10.53125 -25.75 9.597656 -25.53125 8.546875 -25.53125 Z M 22.828125 -25.53125 C 21.171875 -25.53125 19.835938 -26.101562 18.828125 -27.25 C 17.828125 -28.394531 17.328125 -30.015625 17.328125 -32.109375 C 17.328125 -35.566406 18.242188 -38.523438 20.078125 -40.984375 C 21.910156 -43.453125 24.398438 -45.578125 27.546875 -47.359375 L 30.0625 -43.375 C 28.15625 -42.320312 26.554688 -41.117188 25.265625 -39.765625 C 23.984375 -38.410156 23.25 -37.023438 23.0625 -35.609375 C 24.65625 -35.546875 25.898438 -35.0625 26.796875 -34.15625 C 27.703125 -33.25 28.15625 -32.066406 28.15625 -30.609375 C 28.15625 -29.660156 27.9375 -28.796875 27.5 -28.015625 C 27.070312 -27.242188 26.445312 -26.632812 25.625 -26.1875 C 24.8125 -25.75 23.878906 -25.53125 22.828125 -25.53125 Z M 22.828125 -25.53125 "/></g></g></g></g></svg>